<svg width="44" height="50" viewBox="0 0 44 50" fill="none" xmlns="http://www.w3.org/2000/svg">
<g clip-path="url(#clip0_5496_10710)">
<path d="M13.8125 27.1063C13.9876 23.9819 15.5176 21.2292 17.8259 19.2778C20.0895 17.3612 23.1363 16.1898 26.4606 16.1898C29.7817 16.1898 32.8285 17.3612 35.0937 19.2778C37.4003 21.2292 38.9303 23.9819 39.1071 27.103C39.2822 30.3133 37.9918 33.2957 35.7282 35.5064C33.42 37.7552 30.1369 39.1662 26.4606 39.1662C22.7843 39.1662 19.4947 37.7552 17.1881 35.5064C14.9228 33.2957 13.6357 30.3133 13.8125 27.1063Z" fill="white"/>
<path d="M19.9725 27.3852C20.0624 25.782 20.8474 24.3696 22.0318 23.3683C23.1933 22.3849 24.7566 21.7838 26.4624 21.7838C28.1664 21.7838 29.7298 22.3849 30.8921 23.3683C32.0756 24.3696 32.8607 25.782 32.9514 27.3835C33.0412 29.0307 32.3791 30.561 31.2176 31.6954C30.0333 32.8492 28.3487 33.5732 26.4624 33.5732C24.576 33.5732 22.8881 32.8492 21.7045 31.6954C20.5422 30.561 19.8818 29.0307 19.9725 27.3852Z" fill="#265787"/>
<path d="M9.66932 30.6785C9.68036 31.3072 9.88087 32.529 10.1816 33.4831C10.8137 35.5026 11.8859 37.3709 13.3779 39.0174C14.9089 40.7098 16.7941 42.0692 18.9717 43.0344C21.2605 44.048 23.7405 44.5645 26.3165 44.5603C28.8883 44.5569 31.3683 44.0301 33.6572 43.0089C35.8347 42.0344 37.7183 40.6691 39.2467 38.9758C40.7378 37.3225 41.8083 35.4508 42.4421 33.4312C42.7607 32.4109 42.9621 31.3752 43.0428 30.3361C43.1218 29.3123 43.0887 28.2869 42.9434 27.2622C42.6596 25.2657 41.9689 23.3923 40.9052 21.6846C39.9324 20.1153 38.6784 18.7415 37.1873 17.5852L37.1907 17.5827L22.1433 6.02883C22.1297 6.01863 22.1186 6.00759 22.1042 5.99824C21.1169 5.24039 19.4568 5.24294 18.371 6.00249C17.2733 6.77053 17.1476 8.0407 18.1246 8.84188L18.1204 8.84613L24.3964 13.9497L5.26749 13.9701H5.242C3.66088 13.9718 2.14093 15.0092 1.84017 16.3201C1.53091 17.6557 2.60482 18.7636 4.24881 18.7696L4.24626 18.7755L13.942 18.7568L-3.35943 32.037C-3.38152 32.0532 -3.40531 32.0702 -3.4257 32.0863C-5.0578 33.3361 -5.58541 35.4142 -4.55738 36.7294C-3.51406 38.0667 -1.29573 38.0693 0.353357 36.7371L9.79591 29.009C9.79591 29.009 9.65827 30.0524 9.66932 30.6785ZM33.9333 34.1721C31.9877 36.1542 29.2638 37.2783 26.3165 37.2842C23.365 37.2893 20.6412 36.1755 18.6956 34.1967C17.7448 33.2324 17.0465 32.1229 16.6157 30.941C16.1935 29.7796 16.0295 28.5469 16.1382 27.303C16.241 26.0872 16.603 24.9275 17.1807 23.8783C17.7482 22.8468 18.5299 21.9148 19.495 21.1264C21.3863 19.5852 23.7941 18.7509 26.3123 18.7475C28.8331 18.7441 31.2392 19.5707 33.1321 21.1068C34.0956 21.8919 34.8764 22.8205 35.4439 23.8502C36.0242 24.8986 36.3836 26.0541 36.4906 27.2733C36.5977 28.5154 36.4337 29.7465 36.0114 30.9088C35.5798 32.094 34.884 33.2036 33.9333 34.1721Z" fill="#EA7600"/>
</g>
<defs>
<clipPath id="clip0_5496_10710">
<rect width="48.169" height="48.169" fill="white" transform="translate(-5.08447 0.915466)"/>
</clipPath>
</defs>
</svg>
