<svg width="44" height="50" viewBox="0 0 44 50" fill="none" xmlns="http://www.w3.org/2000/svg">
<path d="M26.6559 25C26.6559 21.1194 29.7236 17.9764 33.5049 17.9764C37.2892 17.9764 40.3539 21.1164 40.3539 25C40.3539 28.8806 37.2892 32.0237 33.5049 32.0237C29.7267 32.0237 26.6559 28.8837 26.6559 25Z" fill="#1ABCFE"/>
<path d="M12.9578 39.0503C12.9578 35.1697 16.0255 32.0237 19.8068 32.0237H26.6558V39.0503C26.6558 42.9279 23.5881 46.074 19.8068 46.074C16.0255 46.074 12.9578 42.9279 12.9578 39.0503Z" fill="#0ACF83"/>
<path d="M26.6559 3.92609V17.9764H33.5049C37.2892 17.9764 40.3539 14.8303 40.3539 10.9497C40.3539 7.07212 37.2892 3.92609 33.5049 3.92609H26.6559Z" fill="#FF7262"/>
<path d="M12.9578 10.9497C12.9578 14.8303 16.0255 17.9764 19.8068 17.9764H26.6558V3.92609H19.8068C16.0255 3.92609 12.9578 7.07212 12.9578 10.9497Z" fill="#F24E1E"/>
<path d="M12.9578 25C12.9578 28.8806 16.0255 32.0237 19.8068 32.0237H26.6558V17.9764H19.8068C16.0255 17.9764 12.9578 21.1164 12.9578 25Z" fill="#A259FF"/>
</svg>
