<svg width="50" height="50" viewBox="0 0 50 50" fill="none" xmlns="http://www.w3.org/2000/svg">
<path d="M3.92615 19.1795C3.92615 13.8403 3.92615 11.1707 4.96523 9.13138C5.87924 7.33755 7.33767 5.87911 9.1315 4.96511C11.1708 3.92603 13.8404 3.92603 19.1796 3.92603H30.8206C36.1598 3.92603 38.8294 3.92603 40.8686 4.96511C42.6625 5.87911 44.1209 7.33755 45.0349 9.13138C46.074 11.1707 46.074 13.8403 46.074 19.1795V30.8204C46.074 36.1597 46.074 38.8293 45.0349 40.8685C44.1209 42.6623 42.6625 44.1208 40.8686 45.0348C38.8294 46.0739 36.1598 46.0739 30.8206 46.0739H19.1796C13.8404 46.0739 11.1708 46.0739 9.1315 45.0348C7.33767 44.1208 5.87924 42.6623 4.96523 40.8685C3.92615 38.8293 3.92615 36.1597 3.92615 30.8204V19.1795Z" fill="#330000"/>
<path d="M24.3507 30.4134H17.8194L16.4906 34.6473C16.4537 34.8046 16.3089 34.916 16.1513 34.9082H12.8432C12.6545 34.9082 12.5886 34.8019 12.6453 34.5892L18.3001 17.8857C18.3567 17.7117 18.4133 17.5136 18.4697 17.2913C18.5438 16.9043 18.5816 16.5111 18.5829 16.1169C18.5667 16.0003 18.669 15.8974 18.7807 15.9138H23.2764C23.4081 15.9138 23.4834 15.9621 23.5025 16.0587L29.9208 34.6183C29.9773 34.8117 29.9208 34.9083 29.7512 34.9082H26.0755C25.9466 34.9229 25.8235 34.8346 25.7928 34.7053L24.3507 30.4134ZM18.8373 26.7595H23.3047C22.5707 24.2514 21.7423 21.7763 21.071 19.2487C20.3467 21.7806 19.5564 24.3023 18.8373 26.7595Z" fill="#FF9A00"/>
<path d="M33.7375 18.9876C33.4491 18.9995 33.1616 18.9488 32.8935 18.8389C32.6255 18.729 32.3832 18.5622 32.1824 18.3497C31.9822 18.1278 31.8265 17.8677 31.7246 17.5839C31.6227 17.3003 31.5765 16.9988 31.5885 16.6967C31.5783 16.3976 31.6296 16.0997 31.7392 15.8224C31.849 15.545 32.0144 15.2945 32.2248 15.0872C32.4332 14.8821 32.6791 14.7213 32.9486 14.6143C33.2179 14.5073 33.5052 14.4561 33.7939 14.4638C34.4727 14.4638 35.0051 14.6716 35.3915 15.0872C35.5866 15.3032 35.7381 15.5566 35.8376 15.8327C35.937 16.1089 35.9825 16.4026 35.971 16.6967C35.9829 16.9999 35.9352 17.3026 35.8307 17.5865C35.7264 17.8704 35.5673 18.1299 35.3632 18.3497C35.1499 18.5654 34.8952 18.7333 34.6155 18.8432C34.3357 18.953 34.0367 19.0022 33.7375 18.9876ZM31.7865 34.6181V20.7566C31.7865 20.5826 31.8616 20.4956 32.0127 20.4956H35.4905C35.6411 20.4956 35.7165 20.5826 35.7166 20.7566V34.6181C35.7166 34.8117 35.6412 34.9084 35.4905 34.9082H32.041C31.8714 34.9082 31.7865 34.8116 31.7865 34.6181Z" fill="#FF9A00"/>
</svg>
